<svg xmlns="http://www.w3.org/2000/svg" width="28" height="28" viewBox="0 0 28 28" fill="none">
  <path fill="var(--key-color)" fill-rule="evenodd" clip-rule="evenodd" d="M8.637 5C5.422 5 3 7.393 3 10.455C3 12.302 4.23 14.598 6.446 17.232C8.472 19.64 11.179 22.169 14.067 24.678C16.948 22.171 19.623 19.644 21.617 17.238C23.795 14.607 25 12.307 25 10.454C25 7.368 22.686 5 19.498 5C17.735 5 15.958 5.815 14.822 7.121C14.7281 7.22891 14.6122 7.31544 14.482 7.37473C14.3519 7.43402 14.2105 7.4647 14.0675 7.4647C13.9245 7.4647 13.7831 7.43402 13.653 7.37473C13.5228 7.31544 13.4069 7.22891 13.313 7.121C12.176 5.815 10.4 5 8.637 5ZM1 10.455C1 6.236 4.37 3 8.637 3C10.617 3 12.589 3.763 14.067 5.054C15.548 3.763 17.518 3 19.498 3C23.793 3 27 6.265 27 10.455C27 13.061 25.376 15.835 23.157 18.513C20.903 21.234 17.867 24.05 14.72 26.758C14.5385 26.9143 14.307 27.0002 14.0675 27.0002C13.828 27.0002 13.5965 26.9143 13.415 26.758C10.271 24.053 7.202 21.238 4.915 18.519C2.665 15.845 1 13.068 1 10.455Z" />
  <path fill="var(--fill-color)" d="M8.637 5C5.422 5 3 7.393 3 10.455C3 12.302 4.23 14.598 6.446 17.232C8.472 19.64 11.179 22.169 14.067 24.678C16.948 22.171 19.623 19.644 21.617 17.238C23.795 14.607 25 12.307 25 10.454C25 7.368 22.686 5 19.498 5C17.735 5 15.958 5.815 14.822 7.121C14.7281 7.22891 14.6122 7.31544 14.482 7.37473C14.3519 7.43402 14.2105 7.4647 14.0675 7.4647C13.9245 7.4647 13.7831 7.43402 13.653 7.37473C13.5228 7.31544 13.4069 7.22891 13.313 7.121C12.176 5.815 10.4 5 8.637 5Z" />
</svg>